<svg width="354" height="15" viewBox="0 0 354 15" fill="none" xmlns="http://www.w3.org/2000/svg">
<path d="M7.82594 7.136H2.76994V12H0.961938V0.832H2.76994V5.536H7.82594V0.832H9.63394V12H7.82594V7.136ZM15.0238 12V7.6L11.1838 0.832H13.2478L15.9678 5.808H16.0158L18.7198 0.832H20.7038L16.8318 7.568V12H15.0238ZM23.9708 0.832V7.712C23.9708 8.66133 24.1521 9.376 24.5148 9.856C24.8775 10.336 25.4961 10.576 26.3708 10.576C27.2455 10.576 27.8641 10.336 28.2268 9.856C28.5895 9.376 28.7708 8.66133 28.7708 7.712V0.832H30.5468V7.424C30.5468 8.24533 30.4721 8.95467 30.3228 9.552C30.1735 10.1493 29.9335 10.6453 29.6028 11.04C29.2721 11.424 28.8401 11.712 28.3068 11.904C27.7841 12.096 27.1388 12.192 26.3708 12.192C25.6028 12.192 24.9521 12.096 24.4188 11.904C23.8961 11.712 23.4695 11.424 23.1388 11.04C22.8081 10.6453 22.5681 10.1493 22.4188 9.552C22.2695 8.95467 22.1948 8.24533 22.1948 7.424V0.832H23.9708ZM36.2356 5.824L35.0036 3.456H34.9556V12H33.2276V0.832H35.2436L38.8916 7.008L40.1236 9.376H40.1716V0.832H41.8996V12H39.8836L36.2356 5.824ZM47.9934 12.192C47.0548 12.192 46.2548 12.0213 45.5934 11.68C44.9428 11.3387 44.3828 10.88 43.9134 10.304L45.1614 9.136C45.5561 9.616 45.9881 9.97867 46.4574 10.224C46.9374 10.4693 47.4814 10.592 48.0894 10.592C48.8041 10.592 49.3428 10.432 49.7054 10.112C50.0681 9.792 50.2494 9.36 50.2494 8.816C50.2494 8.37867 50.1214 8.032 49.8654 7.776C49.6094 7.52 49.1561 7.328 48.5054 7.2L47.5134 7.024C46.4254 6.82133 45.6094 6.464 45.0654 5.952C44.5214 5.44 44.2494 4.736 44.2494 3.84C44.2494 3.34933 44.3401 2.90667 44.5214 2.512C44.7134 2.10667 44.9748 1.77067 45.3054 1.504C45.6468 1.22667 46.0574 1.01333 46.5374 0.863999C47.0174 0.714666 47.5561 0.639999 48.1534 0.639999C48.9961 0.639999 49.7268 0.789333 50.3454 1.088C50.9641 1.376 51.4921 1.79733 51.9294 2.352L50.6654 3.472C50.3774 3.09867 50.0254 2.8 49.6094 2.576C49.1934 2.352 48.6761 2.24 48.0574 2.24C47.4174 2.24 46.9214 2.368 46.5694 2.624C46.2174 2.88 46.0414 3.25333 46.0414 3.744C46.0414 4.21333 46.1854 4.56533 46.4734 4.8C46.7614 5.024 47.2094 5.19467 47.8174 5.312L48.8094 5.52C49.9294 5.73333 50.7454 6.096 51.2574 6.608C51.7801 7.12 52.0414 7.824 52.0414 8.72C52.0414 9.24267 51.9508 9.71733 51.7694 10.144C51.5881 10.5707 51.3214 10.9387 50.9694 11.248C50.6281 11.5467 50.2068 11.7813 49.7054 11.952C49.2041 12.112 48.6334 12.192 47.9934 12.192ZM53.7319 12V10.528H55.2519V2.304H53.7319V0.832H58.5959V2.304H57.0599V10.528H58.5959V12H53.7319ZM64.2122 6.784L62.6762 8.544V12H60.8682V0.832H62.6762V6.496H62.7402L64.3402 4.464L67.3482 0.832H69.4602L65.4762 5.536L69.7802 12H67.6042L64.2122 6.784ZM72.5309 9.776C72.9256 9.776 73.2189 9.87733 73.4109 10.08C73.6029 10.2827 73.6989 10.544 73.6989 10.864V11.12C73.6989 11.6427 73.5549 12.1867 73.2669 12.752C72.9896 13.328 72.6109 13.8133 72.1309 14.208H70.8349C71.1763 13.8667 71.4589 13.536 71.6829 13.216C71.9069 12.896 72.0776 12.5387 72.1949 12.144C71.9176 12.0907 71.7096 11.9733 71.5709 11.792C71.4323 11.6 71.3629 11.376 71.3629 11.12V10.864C71.3629 10.544 71.4589 10.2827 71.6509 10.08C71.8429 9.87733 72.1363 9.776 72.5309 9.776ZM82.6488 12V7.6L78.8088 0.832H80.8728L83.5928 5.808H83.6408L86.3448 0.832H88.3288L84.4568 7.568V12H82.6488ZM91.5958 0.832V7.712C91.5958 8.66133 91.7771 9.376 92.1398 9.856C92.5025 10.336 93.1211 10.576 93.9958 10.576C94.8705 10.576 95.4891 10.336 95.8518 9.856C96.2145 9.376 96.3958 8.66133 96.3958 7.712V0.832H98.1718V7.424C98.1718 8.24533 98.0971 8.95467 97.9478 9.552C97.7985 10.1493 97.5585 10.6453 97.2278 11.04C96.8971 11.424 96.4651 11.712 95.9318 11.904C95.4091 12.096 94.7638 12.192 93.9958 12.192C93.2278 12.192 92.5771 12.096 92.0438 11.904C91.5211 11.712 91.0945 11.424 90.7638 11.04C90.4331 10.6453 90.1931 10.1493 90.0438 9.552C89.8945 8.95467 89.8198 8.24533 89.8198 7.424V0.832H91.5958ZM107.717 7.136H102.661V12H100.853V0.832H102.661V5.536H107.717V0.832H109.525V12H107.717V7.136ZM113.922 12L111.282 0.832H113.122L114.258 6.208L115.042 9.92H115.09L115.986 6.208L117.314 0.832H119.33L120.642 6.208L121.522 9.904H121.57L122.386 6.208L123.554 0.832H125.33L122.578 12H120.546L119.122 6.224L118.29 2.832H118.258L117.41 6.224L115.954 12H113.922ZM133.844 12L132.836 8.976H128.66L127.684 12H125.844L129.652 0.832H131.924L135.732 12H133.844ZM130.788 2.496H130.708L129.092 7.424H132.388L130.788 2.496ZM140.47 5.824L139.238 3.456H139.19V12H137.462V0.832H139.478L143.126 7.008L144.358 9.376H144.406V0.832H146.134V12H144.118L140.47 5.824ZM149.828 9.776C150.222 9.776 150.516 9.87733 150.708 10.08C150.9 10.2827 150.996 10.544 150.996 10.864V11.12C150.996 11.6427 150.852 12.1867 150.564 12.752C150.286 13.328 149.908 13.8133 149.428 14.208H148.132C148.473 13.8667 148.756 13.536 148.98 13.216C149.204 12.896 149.374 12.5387 149.492 12.144C149.214 12.0907 149.006 11.9733 148.868 11.792C148.729 11.6 148.66 11.376 148.66 11.12V10.864C148.66 10.544 148.756 10.2827 148.948 10.08C149.14 9.87733 149.433 9.776 149.828 9.776ZM165.85 3.456H165.77L164.89 5.264L162.442 9.728L159.994 5.264L159.114 3.456H159.034V12H157.306V0.832H159.45L162.442 6.512H162.538L165.53 0.832H167.578V12H165.85V3.456ZM169.857 12V10.528H171.377V2.304H169.857V0.832H174.721V2.304H173.185V10.528H174.721V12H169.857ZM180.001 5.824L178.769 3.456H178.721V12H176.993V0.832H179.009L182.657 7.008L183.889 9.376H183.937V0.832H185.665V12H183.649L180.001 5.824ZM194.223 0.832V8.96C194.223 9.45067 194.143 9.89333 193.983 10.288C193.823 10.6827 193.594 11.024 193.295 11.312C193.007 11.5893 192.65 11.808 192.223 11.968C191.807 12.1173 191.343 12.192 190.831 12.192C189.86 12.192 189.092 11.936 188.527 11.424C187.972 10.9013 187.62 10.224 187.471 9.392L189.135 9.024C189.231 9.504 189.412 9.88267 189.679 10.16C189.956 10.4373 190.34 10.576 190.831 10.576C191.311 10.576 191.695 10.4267 191.983 10.128C192.271 9.82933 192.415 9.376 192.415 8.768V2.336H188.767V0.832H194.223ZM196.435 12V10.528H197.955V2.304H196.435V0.832H201.299V2.304H199.763V10.528H201.299V12H196.435ZM204.515 9.776C204.91 9.776 205.203 9.87733 205.395 10.08C205.587 10.2827 205.683 10.544 205.683 10.864V11.12C205.683 11.6427 205.539 12.1867 205.251 12.752C204.974 13.328 204.595 13.8133 204.115 14.208H202.819C203.161 13.8667 203.443 13.536 203.667 13.216C203.891 12.896 204.062 12.5387 204.179 12.144C203.902 12.0907 203.694 11.9733 203.555 11.792C203.417 11.6 203.347 11.376 203.347 11.12V10.864C203.347 10.544 203.443 10.2827 203.635 10.08C203.827 9.87733 204.121 9.776 204.515 9.776ZM216.185 12.192C214.724 12.192 213.577 11.7013 212.745 10.72C211.913 9.728 211.497 8.29333 211.497 6.416C211.497 5.47733 211.604 4.65067 211.817 3.936C212.031 3.22133 212.34 2.61867 212.745 2.128C213.151 1.63733 213.641 1.26933 214.217 1.024C214.804 0.767999 215.46 0.639999 216.185 0.639999C217.156 0.639999 217.967 0.853333 218.617 1.28C219.279 1.70667 219.796 2.336 220.169 3.168L218.649 4C218.457 3.46667 218.159 3.04533 217.753 2.736C217.359 2.416 216.836 2.256 216.185 2.256C215.321 2.256 214.644 2.54933 214.153 3.136C213.663 3.72267 213.417 4.53333 213.417 5.568V7.264C213.417 8.29867 213.663 9.10933 214.153 9.696C214.644 10.2827 215.321 10.576 216.185 10.576C216.857 10.576 217.401 10.4053 217.817 10.064C218.244 9.712 218.559 9.264 218.761 8.72L220.217 9.6C219.844 10.4107 219.321 11.0453 218.649 11.504C217.977 11.9627 217.156 12.192 216.185 12.192ZM228.998 7.136H223.942V12H222.134V0.832H223.942V5.536H228.998V0.832H230.806V12H228.998V7.136ZM240.532 12L239.524 8.976H235.348L234.372 12H232.532L236.34 0.832H238.612L242.42 12H240.532ZM237.476 2.496H237.396L235.78 7.424H239.076L237.476 2.496ZM244.149 12V0.832H251.301V2.432H245.957V5.536H250.805V7.136H245.957V10.4H251.301V12H244.149ZM256.102 12V7.6L252.262 0.832H254.326L257.046 5.808H257.094L259.798 0.832H261.782L257.91 7.568V12H256.102ZM263.337 12V0.832H270.489V2.432H265.145V5.536H269.993V7.136H265.145V10.4H270.489V12H263.337ZM277.141 12.192C276.416 12.192 275.755 12.0693 275.157 11.824C274.571 11.568 274.064 11.2 273.637 10.72C273.221 10.2293 272.896 9.62667 272.661 8.912C272.437 8.18667 272.325 7.35467 272.325 6.416C272.325 5.47733 272.437 4.65067 272.661 3.936C272.896 3.21067 273.221 2.608 273.637 2.128C274.064 1.63733 274.571 1.26933 275.157 1.024C275.755 0.767999 276.416 0.639999 277.141 0.639999C277.867 0.639999 278.523 0.767999 279.109 1.024C279.707 1.26933 280.213 1.63733 280.629 2.128C281.056 2.608 281.381 3.21067 281.605 3.936C281.84 4.65067 281.957 5.47733 281.957 6.416C281.957 7.35467 281.84 8.18667 281.605 8.912C281.381 9.62667 281.056 10.2293 280.629 10.72C280.213 11.2 279.707 11.568 279.109 11.824C278.523 12.0693 277.867 12.192 277.141 12.192ZM277.141 10.576C277.568 10.576 277.957 10.5013 278.309 10.352C278.672 10.2027 278.976 9.98933 279.221 9.712C279.477 9.424 279.675 9.07733 279.813 8.672C279.952 8.26667 280.021 7.808 280.021 7.296V5.536C280.021 5.024 279.952 4.56533 279.813 4.16C279.675 3.75467 279.477 3.41333 279.221 3.136C278.976 2.848 278.672 2.62933 278.309 2.48C277.957 2.33067 277.568 2.256 277.141 2.256C276.704 2.256 276.309 2.33067 275.957 2.48C275.605 2.62933 275.301 2.848 275.045 3.136C274.8 3.41333 274.608 3.75467 274.469 4.16C274.331 4.56533 274.261 5.024 274.261 5.536V7.296C274.261 7.808 274.331 8.26667 274.469 8.672C274.608 9.07733 274.8 9.424 275.045 9.712C275.301 9.98933 275.605 10.2027 275.957 10.352C276.309 10.5013 276.704 10.576 277.141 10.576ZM287.22 5.824L285.988 3.456H285.94V12H284.212V0.832H286.228L289.876 7.008L291.108 9.376H291.156V0.832H292.884V12H290.868L287.22 5.824ZM296.578 9.776C296.972 9.776 297.266 9.87733 297.458 10.08C297.65 10.2827 297.746 10.544 297.746 10.864V11.12C297.746 11.6427 297.602 12.1867 297.314 12.752C297.036 13.328 296.658 13.8133 296.178 14.208H294.882C295.223 13.8667 295.506 13.536 295.73 13.216C295.954 12.896 296.124 12.5387 296.242 12.144C295.964 12.0907 295.756 11.9733 295.618 11.792C295.479 11.6 295.41 11.376 295.41 11.12V10.864C295.41 10.544 295.506 10.2827 295.698 10.08C295.89 9.87733 296.183 9.776 296.578 9.776ZM306.696 12V7.6L302.856 0.832H304.92L307.64 5.808H307.688L310.392 0.832H312.376L308.504 7.568V12H306.696ZM315.643 0.832V7.712C315.643 8.66133 315.824 9.376 316.187 9.856C316.549 10.336 317.168 10.576 318.043 10.576C318.917 10.576 319.536 10.336 319.899 9.856C320.261 9.376 320.443 8.66133 320.443 7.712V0.832H322.219V7.424C322.219 8.24533 322.144 8.95467 321.995 9.552C321.845 10.1493 321.605 10.6453 321.275 11.04C320.944 11.424 320.512 11.712 319.979 11.904C319.456 12.096 318.811 12.192 318.043 12.192C317.275 12.192 316.624 12.096 316.091 11.904C315.568 11.712 315.141 11.424 314.811 11.04C314.48 10.6453 314.24 10.1493 314.091 9.552C313.941 8.95467 313.867 8.24533 313.867 7.424V0.832H315.643ZM327.907 5.824L326.675 3.456H326.627V12H324.899V0.832H326.915L330.563 7.008L331.795 9.376H331.843V0.832H333.571V12H331.555L327.907 5.824ZM342.129 0.832V8.96C342.129 9.45067 342.049 9.89333 341.889 10.288C341.729 10.6827 341.5 11.024 341.201 11.312C340.913 11.5893 340.556 11.808 340.129 11.968C339.713 12.1173 339.249 12.192 338.737 12.192C337.767 12.192 336.999 11.936 336.433 11.424C335.879 10.9013 335.527 10.224 335.377 9.392L337.041 9.024C337.137 9.504 337.319 9.88267 337.585 10.16C337.863 10.4373 338.247 10.576 338.737 10.576C339.217 10.576 339.601 10.4267 339.889 10.128C340.177 9.82933 340.321 9.376 340.321 8.768V2.336H336.673V0.832H342.129ZM346.533 0.832V7.712C346.533 8.66133 346.715 9.376 347.077 9.856C347.44 10.336 348.059 10.576 348.933 10.576C349.808 10.576 350.427 10.336 350.789 9.856C351.152 9.376 351.333 8.66133 351.333 7.712V0.832H353.109V7.424C353.109 8.24533 353.035 8.95467 352.885 9.552C352.736 10.1493 352.496 10.6453 352.165 11.04C351.835 11.424 351.403 11.712 350.869 11.904C350.347 12.096 349.701 12.192 348.933 12.192C348.165 12.192 347.515 12.096 346.981 11.904C346.459 11.712 346.032 11.424 345.701 11.04C345.371 10.6453 345.131 10.1493 344.981 9.552C344.832 8.95467 344.757 8.24533 344.757 7.424V0.832H346.533Z" fill="#0D6CC1"/>
</svg>
